HIERARCHY
ROOT Hips
{
  OFFSET 1.44925e-005 102.336 -0.101585
  CHANNELS 6 Xposition Yposition Zposition Zrotation Xrotation Yrotation
  JOINT LeftUpLeg
  {
    OFFSET 8.9458 -8.66707 0.101652
    CHANNELS 3 Zrotation Xrotation Yrotation
    JOINT LeftLeg
    {
      OFFSET 0 -44.4227 1.3727
      CHANNELS 3 Zrotation Xrotation Yrotation
      JOINT LeftFoot
      {
        OFFSET -0.253549 -42.0924 -1.46059
        CHANNELS 3 Zrotation Xrotation Yrotation
        JOINT LeftToes
        {
          OFFSET -0.04 -4.41509 8.4991
          CHANNELS 3 Zrotation Xrotation Yrotation
          End Site
          {
            OFFSET 0.08 -0.047448 9.77979
          }
        }
      }
    }
  }
  JOINT Spine
  {
    OFFSET 0 11.8905 0
    CHANNELS 3 Zrotation Xrotation Yrotation
    JOINT Spine1
    {
      OFFSET 0 25.6574 0.127663
      CHANNELS 3 Zrotation Xrotation Yrotation
      JOINT RightShoulder
      {
        OFFSET -8.99 -0.362252 -0.22
        CHANNELS 3 Zrotation Xrotation Yrotation
        JOINT RightArm
        {
          OFFSET -10.2827 -0.00338 0.322123
          CHANNELS 3 Zrotation Xrotation Yrotation
          JOINT RightForeArm
          {
            OFFSET -26.364 0.099144 -1.42434
            CHANNELS 3 Zrotation Xrotation Yrotation
            JOINT RightHand
            {
              OFFSET -22.0324 0.085362 1.02216
              CHANNELS 3 Zrotation Xrotation Yrotation
              End Site
              {
                OFFSET -13.3284 -0.6 1.50291
              }
            }
          }
        }
      }
      JOINT LeftShoulder1
      {
        OFFSET 8.99 -0.362252 -0.22
        CHANNELS 3 Zrotation Xrotation Yrotation
        JOINT LeftArm
        {
          OFFSET 10.2827 -0.00337999 0.322123
          CHANNELS 3 Zrotation Xrotation Yrotation
          JOINT LeftForeArm
          {
            OFFSET 26.2597 0.099144 -1.42434
            CHANNELS 3 Zrotation Xrotation Yrotation
            JOINT LeftHand
            {
              OFFSET 22.0902 0.085362 1.02216
              CHANNELS 3 Zrotation Xrotation Yrotation
              End Site
              {
                OFFSET 13.419 -0.6 1.50291
              }
            }
          }
        }
      }
      JOINT Head
      {
        OFFSET 0 8.73416 0.011341
        CHANNELS 3 Zrotation Xrotation Yrotation
        End Site
        {
          OFFSET -0.29 12.7742 2.51395
        }
      }
    }
  }
  JOINT RightUpLeg
  {
    OFFSET -8.9458 -8.66707 0.101652
    CHANNELS 3 Zrotation Xrotation Yrotation
    JOINT RightLeg
    {
      OFFSET 0 -44.4227 1.3727
      CHANNELS 3 Zrotation Xrotation Yrotation
      JOINT RightFoot
      {
        OFFSET 0.253549 -42.0924 -1.46059
        CHANNELS 3 Zrotation Xrotation Yrotation
        JOINT RightToes
        {
          OFFSET 0.04 -4.41509 8.4991
          CHANNELS 3 Zrotation Xrotation Yrotation
          End Site
          {
            OFFSET -0.08 -0.137448 9.77979
          }
        }
      }
    }
  }
}
MOTION
Frames:	19
Frame Time:	0.0333333
20.9045 94.9005 3.03296 -9.1999 1.21815 -86.2889 0.392962 20.7573 2.4633 1.0563 35.3372 15.6847 -16.1635 -21.4886 -1.91744 -1.33099e-009 8.75234e-006 -1.47609e-008 0.789178 11.9014 -4.21294 6.5894 0.948656 -5.08746 37.7586 1.78887 0.0747912 26.5665 -28.2382 -18.6366 11.7787 44.1537 -3.53354 -10.6318 9.52778 -1.0971 -39.8426 3.14228 -3.30587 -30.1432 -15.8244 -43.425 5.74628 31.0993 -37.6921 5.82328 9.61819 -0.917488 -2.73619 -11.4302 -0.141006 0.598264 -22.7006 -10.1307 -1.02346 32.0869 -15.7107 1.79506 -8.40152 -0.174732 0.0462048 0.000530889 0.662642 
16.5152 94.7074 2.62216 -9.45529 3.04103 -87.3932 2.93406 16.4925 3.65845 1.32754 46.9437 17.0698 -13.0375 -11.129 -0.398633 -1.33099e-009 8.75234e-006 -1.47609e-008 4.05351 11.646 -3.85838 5.94012 1.43094 -4.11958 38.1659 1.79733 0.0598102 30.063 -28.9756 -9.55483 12.7637 45.545 -5.33566 -10.9749 9.48892 -0.796524 -40.9026 3.24846 -3.36806 -28.2785 -11.9839 -35.7325 6.66015 32.0379 -38.067 5.82328 9.61819 -0.917488 -2.56476 -12.3603 -0.192823 3.21868 -21.9059 -9.57644 -1.04065 35.761 -14.5247 -0.854882 -9.81884 -0.204678 0.0462048 0.000530889 0.662642 
12.6359 94.5429 2.12827 -9.87384 4.46733 -87.266 5.23699 10.0068 3.2206 1.85817 59.835 18.4524 -8.1885 -0.995268 0.489676 -1.33099e-009 8.75234e-006 -1.47609e-008 6.55287 11.8802 -3.78248 5.67191 2.11474 -3.40036 38.6447 1.80294 0.0316414 34.2639 -29.529 0.547793 13.1743 45.2943 -6.03146 -11.5638 9.42755 -0.380135 -41.9154 3.34321 -3.40957 -26.6391 -6.27374 -28.7348 6.34537 32.3371 -35.9175 5.82328 9.61819 -0.917488 -1.86768 -13.2312 -0.875477 5.38769 -20.082 -8.73156 -1.1059 38.2278 -15.3404 -1.22115 -13.6511 -0.272043 0.0462048 0.000530889 0.662642 
8.98685 94.7215 1.7252 -10.4561 5.14495 -86.5379 6.26896 3.14975 1.88313 2.93232 70.9843 18.6288 -5.79993 2.13946 0.479953 -1.33099e-009 8.75234e-006 -1.47609e-008 8.8828 12.2789 -3.65248 4.73131 2.68283 -2.47427 38.8897 1.79956 0.00401229 38.5951 -29.6016 10.5828 12.819 43.4956 -5.25449 -12.0162 9.37997 -0.0869738 -43.013 3.43221 -3.42353 -25.0912 2.28468 -23.0909 3.96522 30.6011 -30.2384 5.82328 9.61819 -0.917488 -1.29938 -13.4018 -2.54637 6.74013 -17.3687 -8.26362 -1.175 39.1296 -16.745 -0.371322 -16.656 -0.262429 0.0462048 0.000530889 0.662642 
5.22716 95.492 1.47512 -11.0827 5.00517 -86.7711 5.70781 -2.99833 1.36663 4.91629 78.751 16.6829 -5.27656 -1.07526 0.290824 -1.33099e-009 8.75234e-006 -1.47609e-008 10.746 12.5606 -2.96784 2.56536 3.01156 -0.994016 38.6368 1.7919 0.00772944 42.5419 -28.6909 20.2903 12.442 41.5784 -4.02806 -12.2269 9.35693 0.049604 -44.0815 3.50865 -3.41489 -25.2741 8.71349 -18.0576 -0.197788 29.3345 -21.965 5.82328 9.61819 -0.917488 -1.04303 -12.9055 -4.54283 7.18783 -13.6521 -7.57606 -1.18494 38.2473 -17.123 0.393155 -18.2125 -0.205896 0.0462048 0.000530889 0.662642 
1.44524 96.4323 1.31969 -11.4607 4.41298 -87.8526 4.53909 -8.80175 1.59428 7.68918 82.9718 12.7132 -5.88562 -5.44411 0.13158 -1.33099e-009 8.75234e-006 -1.47609e-008 12.1325 12.6811 -2.00513 -0.0737035 3.10314 0.693917 37.7438 1.77803 0.050786 45.6215 -26.5259 29.1997 12.2999 40.4705 -2.6115 -12.3399 9.33613 0.206574 -44.9494 3.56609 -3.39809 -29.0877 -2.62148 -12.0942 -7.54906 41.9173 -11.0686 5.82328 9.61819 -0.917488 -0.840966 -12.059 -6.20266 6.988 -9.57855 -6.80281 -1.14058 36.3406 -16.5676 0.940423 -19.6014 -0.15139 0.0462048 0.000530889 0.662642 
-2.30362 97.2678 1.18106 -11.5013 3.77245 -88.8469 3.38872 -14.4745 1.58224 8.54981 83.9348 10.4989 -6.26615 -7.85321 0.0226313 -1.33099e-009 8.75234e-006 -1.47609e-008 13.1987 12.638 -1.14509 -2.4321 2.90147 2.12766 36.2666 1.74682 0.105236 47.3546 -23.5679 36.5265 11.8621 39.457 0.0108668 -12.529 9.29325 0.543397 -45.6569 3.60626 -3.37149 -29.7156 -16.8526 -5.38792 -16.9259 52.8768 2.34681 5.82328 9.61819 -0.917488 -0.645615 -11.1611 -7.58514 6.44487 -5.62379 -6.56931 -0.923209 33.9411 -15.9252 1.29721 -20.9 -0.107155 0.0462048 0.000530889 0.662642 
-6.05777 98.0415 1.04126 -11.4324 3.16071 -89.6014 2.30512 -19.3566 1.22322 6.05637 81.7061 12.2221 -6.06027 -9.64502 -0.0635745 -1.33099e-009 8.75234e-006 -1.47609e-008 13.8386 12.614 -0.355936 -4.44972 2.50152 3.24559 34.5048 1.69238 0.131212 46.817 -19.6647 41.8871 10.4933 36.2907 4.64005 -12.7006 9.24505 0.932216 -46.2168 3.62424 -3.32454 -26.654 -21.1231 2.9713 -20.3779 53.9206 8.49458 5.82328 9.61819 -0.917488 -0.647492 -10.5013 -8.8508 5.71323 -1.71159 -6.26454 -0.288842 31.1685 -15.8465 1.31738 -21.5487 -0.101132 0.0462048 0.000530889 0.662642 
-9.76658 98.6874 0.909501 -11.4373 2.4755 -90.4441 1.48005 -23.0318 1.15354 3.64822 76.3841 14.2139 -6.40149 -11.658 -0.172709 -1.33099e-009 8.75234e-006 -1.47609e-008 13.8497 12.8311 0.440951 -6.23289 2.04793 4.15056 32.8674 1.62973 0.124916 42.437 -13.6292 45.5148 8.38922 28.5075 10.7223 -12.6626 9.22881 1.11299 -46.3324 3.602 -3.26617 -23.1295 -20.6527 12.1994 -19.3021 52.7135 7.48233 5.82328 9.61819 -0.917488 -0.812245 -10.289 -9.80743 4.82123 2.22024 -6.05659 0.14256 28.2656 -15.1767 1.38438 -22.0499 -0.0893807 0.0462048 0.000530889 0.662642 
-13.3949 99.0304 0.7794 -11.3027 1.75942 -91.2738 1.06237 -25.6778 1.58906 2.29346 68.2858 15.4158 -7.42891 -12.6846 -0.269041 -1.33099e-009 8.75234e-006 -1.47609e-008 13.3616 13.0079 1.19551 -7.71296 1.64946 4.84618 31.537 1.57486 0.107452 36.6055 -8.14003 48.6499 6.57178 19.5996 16.6747 -12.5571 9.23437 1.11736 -45.7879 3.53464 -3.21643 -20.9703 -18.0186 21.1567 -16.4497 50.934 3.05366 5.82328 9.61819 -0.917488 -0.914444 -10.4921 -10.4225 3.87225 5.82741 -6.21757 0.258167 25.6312 -13.8118 1.86068 -22.9777 -0.0181745 0.0462048 0.000530889 0.662642 
-16.9781 99.1244 0.645682 -10.7773 1.1697 -91.8743 0.816088 -27.2 2.04241 1.60338 57.5405 16.2283 -8.15748 -12.702 -0.30338 -1.33099e-009 8.75234e-006 -1.47609e-008 12.6404 12.6645 1.95108 -8.77755 1.5574 5.40408 30.3828 1.52118 0.0736001 33.9572 -6.95452 51.5285 5.47447 15.3051 21.7438 -12.6955 9.21334 1.24656 -44.9097 3.45224 -3.18379 -20.6734 -14.4379 28.6265 -13.8268 48.5112 -1.2528 5.82328 9.61819 -0.917488 -1.00299 -10.8753 -11.0041 3.06289 8.9012 -6.57044 0.39077 23.1593 -12.6512 2.20063 -23.8415 0.0398421 0.0462048 0.000530889 0.662642 
-20.5442 99.1422 0.523057 -10.1157 0.686005 -92.2892 0.426917 -27.1824 1.97747 1.23554 44.4715 16.5609 -8.31815 -12.1937 -0.276133 -1.33099e-009 8.75234e-006 -1.47609e-008 11.6 11.9507 2.75258 -9.3452 1.95742 5.93846 29.3689 1.46277 0.00971281 36.0774 -10.0908 54.0853 4.9794 16.9863 25.7933 -13.1187 9.15606 1.55853 -44.2207 3.39338 -3.16793 -20.6469 -12.2492 34.3351 -12.8487 47.4159 -2.87641 5.82328 9.61819 -0.917488 -1.30986 -11.219 -11.5866 2.40448 11.9198 -6.86738 0.578591 20.3425 -11.8293 2.20946 -24.3355 0.0479278 0.0462048 0.000530889 0.662642 
-24.1625 98.9366 0.460605 -9.78551 0.261029 -92.55 -0.122966 -25.9125 1.26905 1.02625 31.3321 16.5897 -8.19432 -10.7554 -0.17541 -1.33099e-009 8.75234e-006 -1.47609e-008 10.2824 11.4472 3.34145 -9.48793 2.55713 6.30626 28.7751 1.41535 -0.0674304 37.8463 -12.4355 56.0395 4.64026 18.297 28.8532 -13.6753 9.09414 1.81513 -43.8625 3.36194 -3.15754 -19.3725 -12.4865 38.7077 -13.4604 48.7592 -1.72795 5.82328 9.61819 -0.917488 -1.70533 -11.4788 -11.8155 1.82838 15.2738 -7.21152 0.634698 17.6487 -10.8496 2.94292 -25.2143 0.178685 0.0462048 0.000530889 0.662642 
-27.95 98.2666 0.535581 -9.79147 0.026085 -92.5632 -0.663671 -24.6717 0.203765 0.906268 22.5017 17.2079 -7.89733 -9.26451 -0.0714218 -1.33099e-009 8.75234e-006 -1.47609e-008 9.32512 11.2306 3.45823 -9.63686 2.97247 6.33992 28.7766 1.39583 -0.12357 39.0299 -13.5291 57.3495 4.35569 18.9909 30.4188 -14.2882 9.03656 1.97865 -43.7127 3.33807 -3.13184 -17.6526 -13.5725 41.8351 -14.7236 50.9727 0.55135 5.82328 9.61819 -0.917488 -1.79045 -11.7852 -11.6117 1.38622 18.4612 -7.76604 0.540515 16.4742 -9.70931 4.68248 -26.7769 0.512179 0.0462048 0.000530889 0.662642 
-31.9579 97.2811 0.798346 -9.78434 0.0166514 -92.6881 -1.07688 -24.2072 -0.535084 0.798624 20.626 18.7856 -7.54209 -9.0371 -0.0520105 -1.33099e-009 8.75234e-006 -1.47609e-008 9.12766 10.7969 3.34438 -10.187 3.4019 6.32406 29.1484 1.40508 -0.132319 39.8334 -13.6068 57.678 4.34227 19.025 30.5033 -14.8093 8.97807 2.18646 -43.7475 3.32168 -3.09432 -16.9812 -13.9457 43.3286 -15.7182 52.6422 2.18245 5.82328 9.61819 -0.917488 -1.51 -12.2315 -11.2651 1.00007 20.8353 -8.40733 0.191446 17.2549 -8.50009 6.3088 -28.3004 0.874728 0.0462048 0.000530889 0.662642 
-36.2607 96.1961 1.22893 -9.70308 0.126 -93.5958 -1.37038 -23.749 0.181001 1.03215 23.5371 20.022 -6.78963 -8.83875 -0.0340926 -1.33099e-009 8.75234e-006 -1.47609e-008 9.1509 9.88676 3.48973 -10.7734 4.05743 6.61237 29.729 1.44424 -0.0767981 39.631 -12.5941 56.5726 4.64102 18.4002 29.3747 -14.9424 8.95878 2.27237 -43.9312 3.33273 -3.08993 -17.6056 -13.7991 43.2679 -16.0293 53.6581 2.48636 5.82328 9.61819 -0.917488 -1.17851 -12.5751 -10.8049 0.315871 22.4753 -8.43418 -0.681213 19.5007 -6.99506 8.40178 -29.681 1.37791 0.0462048 0.000530889 0.662642 
-40.8017 95.1922 1.73064 -9.82168 -0.155811 -95.1333 -2.04344 -22.7619 0.995368 1.14768 27.6515 21.0863 -4.51282 -7.37733 0.0352478 -1.33099e-009 8.75234e-006 -1.47609e-008 8.15135 9.05476 3.91688 -10.7226 4.42516 6.93096 30.7434 1.51638 0.0257429 37.6508 -9.98504 53.7546 4.90705 17.5016 27.2012 -14.6418 9.00862 2.02152 -44.0759 3.37617 -3.1549 -18.8362 -14.1404 42.0414 -15.7649 54.1089 2.03228 5.82328 9.61819 -0.917488 -0.936499 -12.3671 -10.0279 -1.26791 23.7241 -5.78338 -1.33926 23.0453 -6.66451 13.0254 -30.4523 2.40237 0.0462048 0.000530889 0.662642 
-45.2695 94.5686 2.23633 -10.2824 -1.20632 -96.2511 -3.69992 -21.7039 1.59809 1.19732 31.5696 21.3031 -1.10868 -6.46677 0.0410971 -1.33099e-009 8.75234e-006 -1.47609e-008 5.77919 9.07339 4.15971 -10.0596 3.85945 6.74339 32.2212 1.59954 0.107584 34.4509 -5.52968 49.3982 5.12812 16.2872 23.9183 -14.2465 9.06476 1.75813 -44.1143 3.42969 -3.25465 -19.9438 -15.4658 39.1615 -15.7585 54.3135 2.1689 5.82328 9.61819 -0.917488 -0.671665 -11.6375 -9.15956 -3.88957 23.5191 -1.03631 -0.610412 29.5726 -8.35538 18.5421 -28.1725 3.16165 0.0462048 0.000530889 0.662642 
-49.3947 94.4826 2.76186 -10.9023 -2.55445 -96.5549 -5.84885 -20.3826 2.00331 1.24336 34.6687 21.2203 0.989504 -8.25407 0.0385926 -1.33099e-009 8.75234e-006 -1.47609e-008 3.31555 10.0037 4.00702 -9.49038 2.65173 6.1456 33.6318 1.65947 0.129566 34.4559 -2.86566 44.4684 5.86889 18.0037 18.5857 -13.853 9.08417 1.80473 -44.3312 3.48206 -3.32563 -20.8436 -17.3578 33.4288 -16.4472 54.4177 3.35119 5.82328 9.61819 -0.917488 -0.41779 -11.1508 -8.6514 -6.55567 19.9661 -0.138719 -0.871435 41.1196 -8.2118 20.2161 -20.577 2.1332 0.0462048 0.000530889 0.662642 
